<?xml version="1.0" encoding="utf-8"?>
<!-- Generator: Adobe Illustrator 23.0.5, SVG Export Plug-In . SVG Version: 6.00 Build 0)  -->
<svg version="1.1" id="圖層_1" xmlns="http://www.w3.org/2000/svg" xmlns:xlink="http://www.w3.org/1999/xlink" x="0px" y="0px"
	 viewBox="0 0 149 30" style="enable-background:new 0 0 149 30;" xml:space="preserve">
<style type="text/css">
	.st0{fill:#00396F;}
</style>
<g id="R_mark" transform="translate(435 53.345)">
	<path id="路径_3213" class="st0" d="M-408.4-43.2c-0.6-5.8-5.5-10.2-11.3-10.1h-14.4c-0.5,0-0.8,0.4-0.8,0.8v29.1h8.9v-7.8h6.7
		c6.1,0,11.1-5,11.1-11.1l0,0C-408.4-42.6-408.4-42.9-408.4-43.2z M-420.6-38.9h-5.3c-0.2,0-0.3-0.1-0.3-0.3v-6.1
		c0-0.2,0.1-0.3,0.3-0.3h5.3c1.8,0,3.3,1.5,3.3,3.3C-417.2-40.4-418.7-38.9-420.6-38.9L-420.6-38.9z"/>
	<path id="路径_3214" class="st0" d="M-359.5-53.3h-16.9c-0.5,0-0.8,0.4-0.8,0.8v7.2c0,0.5,0.4,0.8,0.8,0.8h8v21.1h8.9v-21.1h8.3
		v-8.9h-8.3V-53.3z"/>
	<path id="路径_3215" class="st0" d="M-322.9-45.3v-7.2c0-0.5-0.4-0.8-0.8-0.8H-349v8.9h8.3v21.1h8.9v-21.1h8
		C-323.3-44.5-322.9-44.8-322.9-45.3L-322.9-45.3z"/>
	<path id="路径_3216" class="st0" d="M-387.8-53.3h-8.9c-0.3,0-0.6,0.2-0.8,0.5l-12,29.4h8.9l1.3-3.3h14l1.3,3.3h8.9l-12-29.4
		C-387.2-53.1-387.5-53.3-387.8-53.3z M-388.9-35.6h-6.6c-0.1,0-0.1-0.1-0.1-0.1l0,0l3.3-8.4c0-0.1,0.1-0.1,0.2-0.1
		c0,0,0.1,0,0.1,0.1l3.3,8.4C-388.8-35.7-388.8-35.6-388.9-35.6L-388.9-35.6z"/>
	<path id="路径_3217" class="st0" d="M-303.5-53.3h-8.9c-0.3,0-0.6,0.2-0.8,0.5l-12,29.4h8.9l1.3-3.3h14l1.3,3.3h8.9l-12-29.4
		C-302.9-53.1-303.2-53.3-303.5-53.3z M-304.6-35.6h-6.6c-0.1,0-0.1-0.1-0.1-0.1s0,0,0-0.1l3.3-8.4c0-0.1,0.1-0.1,0.2-0.1
		c0,0,0.1,0,0.1,0.1l3.3,8.4C-304.4-35.7-304.4-35.6-304.6-35.6C-304.5-35.6-304.6-35.6-304.6-35.6L-304.6-35.6z"/>
	<path id="路径_3218" class="st0" d="M-289.6-53.3c-2.1,0-3.9,1.7-3.9,3.9s1.7,3.9,3.9,3.9c2.1,0,3.9-1.7,3.9-3.9
		S-287.5-53.3-289.6-53.3L-289.6-53.3z M-289.6-46.1c-1.8,0-3.3-1.5-3.3-3.3s1.5-3.3,3.3-3.3s3.3,1.5,3.3,3.3
		C-286.3-47.6-287.8-46.1-289.6-46.1L-289.6-46.1z"/>
	<path id="路径_3219" class="st0" d="M-288.1-50.1c0-0.6-0.4-1-1.2-1h-1.4v3.3h0.7v-1.3h0.2l1,1.3h0.8l-1-1.3
		C-288.6-49.1-288.1-49.5-288.1-50.1L-288.1-50.1z M-290.1-49.7v-0.8h0.7c0.4,0,0.6,0.1,0.6,0.4s-0.2,0.4-0.6,0.4
		C-289.4-49.7-290.1-49.7-290.1-49.7z"/>
</g>
</svg>
